<svg xmlns="http://www.w3.org/2000/svg" width="32" height="32" viewBox="0 0 32 32"><g id="f2592185-fc5e-4892-8184-61f466687678" data-name="Layer 2"><g id="b6fb4a3e-cf01-48d9-82ef-6a13522e0679" data-name="Layer 1"><path d="M16,32A16,16,0,1,1,20.30445.58617a.48468.48468,0,0,1-.26042.93372A15.03261,15.03261,0,1,0,31.0303,16a15.28676,15.28676,0,0,0-.089-1.64678.47622.47622,0,0,1-.00284-.05161,15.003,15.003,0,0,0-1.30587-4.63116A15.209,15.209,0,0,0,28.858,8.214a.48494.48494,0,0,1,.8305-.50095,16.333,16.333,0,0,1,.82386,1.54924,15.97635,15.97635,0,0,1,1.39583,4.98485.52941.52941,0,0,1,.00284.05445A16.26127,16.26127,0,0,1,32,16,16.01841,16.01841,0,0,1,16,32Z"/><path d="M19.866,27.875a.48456.48456,0,0,1-.15956-.94223,11.48839,11.48839,0,0,0,6.446-5.589.48495.48495,0,0,1,.86174.44508,12.45108,12.45108,0,0,1-6.98863,6.05871A.46963.46963,0,0,1,19.866,27.875Z"/><path d="M12.6785,27.46591a9.3066,9.3066,0,0,1-1.70454-.16383,4.25323,4.25323,0,0,1-3.34375-3.00947c-.32576-1.20075.10559-1.77651.52509-2.04829,2.92425-1.892,6.49385-4.83618,6.92993-6.90815a.48483.48483,0,0,1,.94886.19981c-.62547,2.9716-5.78551,6.50947-7.35227,7.52273-.21544.13921-.25426.46875-.116.97917A3.28186,3.28186,0,0,0,11.151,26.34943c4.66714.86459,6.7268-2.358,7.83334-4.09.16335-.25568.3035-.47443.42518-.6392a9.96523,9.96523,0,0,1,3.25427-2.21307,21.51274,21.51274,0,0,0,3.87878-2.41856c1.04309-.88495,2.23012-3.03646,3.4323-6.223a.48482.48482,0,0,1,.90719.34233c-1.27841,3.38779-2.527,5.61506-3.71212,6.62027a22.2421,22.2421,0,0,1-4.0535,2.536A9.80407,9.80407,0,0,0,20.19034,22.196c-.11174.15057-.23958.35133-.38873.58523C18.79025,24.36553,16.81013,27.46591,12.6785,27.46591Z"/><path d="M8.5625,23.04167a.49292.49292,0,0,1-.178-.03409,2.64178,2.64178,0,0,1-1.5303-1.7822,2.86019,2.86019,0,0,1,.76894-2.85322L7.7339,18.286c3.55729-2.73579,4.32623-3.813,4.4678-4.21164a.48492.48492,0,1,1,.91383.32481c-.32434.91193-1.84659,2.39157-4.79025,4.65577l-.10984.08428c-.62406.48107-.49574,1.482-.41146,1.89016A1.67754,1.67754,0,0,0,8.74527,22.107a.48548.48548,0,0,1-.18277.93466Z"/><path d="M7.62547,19.553a.50156.50156,0,0,1-.22253-.05114c-.0947-.04734-.92709-.51041-.9536-2.29356a3.01775,3.01775,0,0,1,.81723-2.11884c1.59943-1.67046,3.59517-3.48958,3.61506-3.50758a.48466.48466,0,1,1,.65246.71686c-.01941.018-1.99148,1.81534-3.56676,3.46117a2.03825,2.03825,0,0,0-.5483,1.43419c.017,1.16288.43372,1.44886.438,1.4517a.4727.4727,0,0,1,.20738.643A.4851.4851,0,0,1,7.62547,19.553Z"/><path d="M7.44744,16.10464a.47942.47942,0,0,1-.366-.16856,3.27706,3.27706,0,0,1-.258-3.53693c.90388-1.87358,4.14773-4.24716,4.28551-4.34707a.48471.48471,0,0,1,.57008.78409c-.03173.02321-3.18419,2.32955-3.982,3.98391a2.33069,2.33069,0,0,0,.12358,2.48863.48556.48556,0,0,1-.37311.79593Z"/><path d="M9.956,10.071a.47889.47889,0,0,1-.43514-.276,3.25982,3.25982,0,0,1,.66951-3.28125,26.74134,26.74134,0,0,1,2.31582-2.44034A25.96867,25.96867,0,0,0,15.92.29877a.48477.48477,0,0,1,.81534.52462A26.50386,26.50386,0,0,1,13.18466,4.7661a26.2233,26.2233,0,0,0-2.223,2.3357,2.35321,2.35321,0,0,0-.56108,2.286.48629.48629,0,0,1-.4446.68324Z"/><path d="M10.91,25.25663a.48476.48476,0,0,1-.05019-.96686,4.00384,4.00384,0,0,0,3.1572-1.75379,7.65735,7.65735,0,0,0-2.3054-2.09469.48508.48508,0,0,1,.51231-.82387c.23769.14773,2.33665,1.483,2.7893,2.77936a.48618.48618,0,0,1-.01184.35038,4.76819,4.76819,0,0,1-4.04025,2.50663A.46356.46356,0,0,1,10.91,25.25663Z"/><path d="M24.36506,10.24621a.49311.49311,0,0,1-.49243-.52178c.00947-.134.19318-3.29214-3.572-4.12784a.48506.48506,0,0,1,0-.947c3.76515-.8357,3.58144-3.99384,3.572-4.12784A.48858.48858,0,0,1,24.00142.1553a.50525.50525,0,0,1,.714,0,.4921.4921,0,0,1,.133.36648c-.00946.134-.19318,3.29214,3.572,4.12784a.48506.48506,0,0,1,0,.947c-3.76515.8357-3.58143,3.99385-3.572,4.12784a.48564.48564,0,0,1-.48342.52178Zm-2.42993-5.1231A4.82513,4.82513,0,0,1,24.3608,7.49905,4.822,4.822,0,0,1,26.786,5.12311,4.822,4.822,0,0,1,24.3608,2.74716,4.82519,4.82519,0,0,1,21.93513,5.12311Z"/></g></g></svg>