<svg xmlns="http://www.w3.org/2000/svg" width="32" height="32" viewBox="0 0 30.81538 32"><g id="b615c5fa-b576-4da5-8b88-4afc80ccfb58" data-name="Layer 2"><g id="ef9ea98c-df5d-4623-92e7-75feea3f03f3" data-name="Layer 1"><path d="M20.54231,24.97328H10.27307A2.42656,2.42656,0,0,1,7.84876,22.549V6.06978a2.42686,2.42686,0,0,1,2.42431-2.42431H20.54231a2.42686,2.42686,0,0,1,2.42432,2.42431V22.549A2.42657,2.42657,0,0,1,20.54231,24.97328ZM10.27307,4.61519A1.45618,1.45618,0,0,0,8.81848,6.06978V22.549a1.45618,1.45618,0,0,0,1.45459,1.45459H20.54231A1.45618,1.45618,0,0,0,21.9969,22.549V6.06978a1.45618,1.45618,0,0,0-1.45459-1.45459Z"/><path d="M13.92469,24.97328a.48459.48459,0,0,1-.48486-.48487V4.13033a.48487.48487,0,0,1,.96973,0V24.48841A.4846.4846,0,0,1,13.92469,24.97328Z"/><path d="M16.89069,24.97328a.48459.48459,0,0,1-.48486-.48487V4.13033a.48486.48486,0,1,1,.96972,0V24.48841A.48459.48459,0,0,1,16.89069,24.97328Z"/><path d="M22.48177,11.1045H17.23066a.48487.48487,0,0,1,0-.96973h5.25111a.48487.48487,0,0,1,0,.96973Z"/><path d="M13.81768,11.1045H8.33362a.48487.48487,0,0,1,0-.96973h5.48406a.48487.48487,0,1,1,0,.96973Z"/><path d="M17.23066,4.61519h-1.823a.48458.48458,0,0,1-.48486-.48486V2.30783a2.30784,2.30784,0,1,1,2.30783,2.30736Zm-1.3381-.96972h1.3381a1.33787,1.33787,0,1,0-1.3381-1.33764Z"/><path d="M15.40769,4.61519h-1.823a2.3076,2.3076,0,1,1,2.30784-2.30736v1.8225A.48459.48459,0,0,1,15.40769,4.61519ZM13.58472.96973a1.33787,1.33787,0,1,0,0,2.67574h1.33811V2.30783A1.33978,1.33978,0,0,0,13.58472.96973Z"/><path d="M22.513,27.97715a2.67756,2.67756,0,0,1-.946-.17235l-2.2264-.8362a.48458.48458,0,1,1,.34092-.90722l2.22639.8362A1.73376,1.73376,0,0,0,24.139,25.88334L29.73387,10.9757a1.73167,1.73167,0,0,0-1.01328-2.23018L22.30278,6.19147a.48456.48456,0,1,1,.358-.90059L29.07,7.84114a2.70074,2.70074,0,0,1,1.57107,3.47548L25.04624,26.22426A2.70643,2.70643,0,0,1,22.513,27.97715Z"/><path d="M28.248,16.79927a.4798.4798,0,0,1-.17614-.03315l-5.76627-2.2477a.48484.48484,0,1,1,.35229-.90343l5.76627,2.2477a.48486.48486,0,0,1-.17615.93658Z"/><path d="M8.30142,32a2.7066,2.7066,0,0,1-2.53227-1.752L.17429,15.33994a2.70166,2.70166,0,0,1,1.57959-3.47927L8.16316,9.45483a.485.485,0,0,1,.34092.90817L2.0948,12.76884A1.73167,1.73167,0,0,0,1.08151,14.999L6.67637,29.90714A1.73442,1.73442,0,0,0,8.9075,30.92042l9.094-3.413a1.73556,1.73556,0,0,0,1.01329-2.23112l-.232-.61745A.48459.48459,0,0,1,19.69,24.318l.232.61745a2.70482,2.70482,0,0,1-1.57959,3.47927l-9.094,3.413A2.6791,2.6791,0,0,1,8.30142,32Z"/><path d="M13.70026,30.124a.48509.48509,0,0,1-.45362-.31441l-1.90536-5.0759a.48459.48459,0,1,1,.90723-.34092l1.90536,5.07591a.48347.48347,0,0,1-.28315.62407A.46761.46761,0,0,1,13.70026,30.124Z"/><path d="M2.34575,20.23355a.48476.48476,0,0,1-.17046-.93847l5.85529-2.198a.48458.48458,0,1,1,.34092.90722l-5.85529,2.198A.46757.46757,0,0,1,2.34575,20.23355Z"/></g></g></svg>