<svg xmlns="http://www.w3.org/2000/svg" width="32" height="32" viewBox="0 0 32 32"><g id="b14e0227-9f2d-411c-bfb4-6baef95d0469" data-name="Layer 2"><g id="af812cdc-fb07-4ee7-95ae-81c24767c9ff" data-name="Layer 1"><path fill="#000" d="M16,27.83712A4.66343,4.66343,0,0,1,11.34233,23.179V15.4233a4.62917,4.62917,0,0,1,.25095-1.51089.48469.48469,0,1,1,.91666.31534A3.67516,3.67516,0,0,0,12.312,15.4233V23.179a3.68821,3.68821,0,1,0,7.37642,0V15.4233a3.69149,3.69149,0,0,0-4.75095-3.53268.4849.4849,0,0,1-.27841-.929,4.66146,4.66146,0,0,1,5.999,4.46165V23.179A4.66353,4.66353,0,0,1,16,27.83712Z"/><path fill="#000" d="M16.23438,25.53693a.48488.48488,0,0,1-.09518-.96023,1.82947,1.82947,0,0,0,1.46213-1.78977.48485.48485,0,1,1,.96969,0,2.80348,2.80348,0,0,1-2.24053,2.74053A.4757.4757,0,0,1,16.23438,25.53693Z"/><path fill="#000" d="M9.83286,30.34754a.48458.48458,0,0,1-.48485-.48485V24.10227a4.98642,4.98642,0,0,1,2.20833-4.1411.48511.48511,0,1,1,.54167.80493,4.01621,4.01621,0,0,0-1.7803,3.33617v5.76042A.48458.48458,0,0,1,9.83286,30.34754Z"/><path fill="#000" d="M22.16761,30.34754a.48457.48457,0,0,1-.48484-.48485V24.10227a4.01622,4.01622,0,0,0-1.78031-3.33617.48511.48511,0,1,1,.54167-.80493,4.98642,4.98642,0,0,1,2.20833,4.1411v5.76042A.48457.48457,0,0,1,22.16761,30.34754Z"/><path fill="#000" d="M10.37027,10.68182a.48373.48373,0,0,1-.32292-.12311L4.50095,5.608a.4849.4849,0,1,1,.64583-.72348l5.5464,4.95076a.48485.48485,0,0,1-.32291.84659Z"/><path fill="#000" d="M13.9536,19.64867c-.01373,0-.02794-.00094-.04214-.00189a.48529.48529,0,0,1-.43182-.38068c-.00994-.0464-1.0142-4.61979-3.2358-6.87879a1.71257,1.71257,0,0,1-.008-2.37169l.00047-.00047a1.7188,1.7188,0,0,1,2.0161-.38684,11.39579,11.39579,0,0,1,4.38257,3.65389.48592.48592,0,0,1,.04877.456l-2.28077,5.60843A.48528.48528,0,0,1,13.9536,19.64867Zm-3.00758-8.973a.75423.75423,0,0,0-.01089,1.03125,15.25217,15.25217,0,0,1,3.11411,5.93419l1.63637-4.02273a10.54294,10.54294,0,0,0-3.85464-3.117A.757.757,0,0,0,10.946,10.67566Z"/><path fill="#000" d="M15.04261,16.97064a.485.485,0,0,1-.4839-.4678,5.43754,5.43754,0,0,0-1.74-3.40009.48481.48481,0,1,1,.69034-.68087,6.3681,6.3681,0,0,1,2.01846,4.04592.48438.48438,0,0,1-.46685.5019Z"/><path fill="#000" d="M16,32A16,16,0,1,1,20.30445.58617a.48468.48468,0,0,1-.26042.93372A15.03261,15.03261,0,1,0,31.0303,16a15.28676,15.28676,0,0,0-.089-1.64678.48486.48486,0,1,1,.964-.10511A16.26086,16.26086,0,0,1,32,16,16.01841,16.01841,0,0,1,16,32Z"/><path fill="#000" d="M28.77746,14.52794a.48947.48947,0,0,1-.48958-.52321l.00095-.01278c-.00237-.05729-.00285-.11695-.00142-.17945A2.68763,2.68763,0,0,0,25.928,11.30208a.48506.48506,0,0,1,0-.947,2.68778,2.68778,0,0,0,2.35938-2.51373c-.00143-.06108-.00095-.11979.00142-.17566l-.00095-.0161a.48615.48615,0,0,1,.12926-.36553.503.503,0,0,1,.71354.00047.487.487,0,0,1,.13021.36743l-.00095.01278c.00237.05729.00284.117.00142.17945a2.687,2.687,0,0,0,2.35891,2.51089.48506.48506,0,0,1,0,.947,2.6868,2.6868,0,0,0-2.35891,2.51326c.00142.06108.00095.11979-.00142.17566l.00095.0161a.487.487,0,0,1-.48343.52084ZM27.41667,10.8286a3.55159,3.55159,0,0,1,1.35748,1.30966,3.55159,3.55159,0,0,1,1.35748-1.30966,3.55159,3.55159,0,0,1-1.35748-1.30966A3.55159,3.55159,0,0,1,27.41667,10.8286Z"/><path fill="#000" d="M23.33381,10.24621a.49306.49306,0,0,1-.49195-.5213c.00947-.13447.1927-3.29262-3.57245-4.12832a.48506.48506,0,0,1,0-.947c3.41-.75663,3.58428-3.38352,3.57765-4.00047L22.84659.64252C22.84564.57765,22.8428.53646,22.84186.5232a.48654.48654,0,0,1,.12736-.36742.50427.50427,0,0,1,.715-.00048.4921.4921,0,0,1,.133.36648c-.00946.134-.19318,3.29214,3.572,4.12784a.48506.48506,0,0,1,0,.947c-3.76515.8357-3.58143,3.99385-3.572,4.12784a.48564.48564,0,0,1-.48342.52178Zm-2.42993-5.1231a4.82334,4.82334,0,0,1,2.42567,2.37594,4.82019,4.82019,0,0,1,2.42518-2.37594,4.82024,4.82024,0,0,1-2.42518-2.37595A4.82339,4.82339,0,0,1,20.90388,5.12311Z"/></g></g></svg>