<svg xmlns="http://www.w3.org/2000/svg" width="32" height="33" viewBox="0 0 27.68345 32"><g id="bdf6fd4f-7b2b-4e5e-bb61-6996a23ca8f8" data-name="Layer 2"><g id="bc848847-7ed8-4a5a-a047-6a917750b361" data-name="Layer 1"><path d="M8.84493,31.03412a.48456.48456,0,0,1-.23247-.91c1.99237-1.08709,1.9223-4.00368,1.92135-4.033a.48459.48459,0,0,1,.46874-.5.49416.49416,0,0,1,.5.46968c.00474.14394.08476,3.54442-2.42607,4.9137A.47534.47534,0,0,1,8.84493,31.03412Z"/><path d="M18.839,31.01612a.47533.47533,0,0,1-.23153-.05965c-2.5113-1.36928-2.43128-4.76882-2.42655-4.91275a.47565.47565,0,0,1,.499-.46874.48469.48469,0,0,1,.47016.499c-.001.02936-.062,2.94973,1.92135,4.03209a.48455.48455,0,0,1-.23247.91Z"/><path d="M13.81734,27.5077a6.99574,6.99574,0,0,1-3.01176-1.01039c-.23626-.13826-.47394-.286-.70216-.44507a10.73243,10.73243,0,0,1-4.4-6.42123h.00094a.5058.5058,0,0,1,.12831-.47158.48413.48413,0,0,1,.82385.28977A9.77119,9.77119,0,0,0,10.655,25.25491c.20975.14583.42565.2803.64155.40624a6.09068,6.09068,0,0,0,2.52077.88066,6.293,6.293,0,0,0,2.43412-.88066c.215-.12594.43086-.26041.63824-.40434a9.74038,9.74038,0,0,0,3.82708-5.18452.47859.47859,0,0,1,.142-.25947.48509.48509,0,0,1,.68511.01705.49891.49891,0,0,1,.098.53313l-.00142.00284a10.69374,10.69374,0,0,1-4.19922,5.6883c-.22585.15719-.46353.30491-.70122.44411A7.14059,7.14059,0,0,1,13.81734,27.5077Z"/><path d="M15.26285,17.89526a.48476.48476,0,0,1-.1534-.94457l2.32759-.77555a3.652,3.652,0,0,1,3.08183.35558.48487.48487,0,0,1-.50851.82573,2.67924,2.67924,0,0,0-2.26651-.26136l-2.32759.77555A.4832.4832,0,0,1,15.26285,17.89526Z"/><path d="M17.135,20.1471a5.69242,5.69242,0,0,1-1.69882-.28219.48488.48488,0,0,1,.322-.91475,4.35123,4.35123,0,0,0,1.812.196,1.79225,1.79225,0,0,0,.97157-.625.48469.48469,0,1,1,.7263.642,2.67827,2.67827,0,0,1-1.54825.94126A3.83485,3.83485,0,0,1,17.135,20.1471Z"/><path d="M12.27856,17.89526a.48316.48316,0,0,1-.15341-.02462L9.798,17.09509a2.686,2.686,0,0,0-2.26651.26136.48487.48487,0,0,1-.50851-.82573,3.65861,3.65861,0,0,1,3.08183-.35558l2.32712.77555a.48476.48476,0,0,1-.1534.94457Z"/><path d="M10.40692,20.1471a3.81817,3.81817,0,0,1-.58379-.04262,2.68282,2.68282,0,0,1-1.54968-.94126.4847.4847,0,0,1,.72631-.642,1.79432,1.79432,0,0,0,.973.625,4.32647,4.32647,0,0,0,1.81008-.196.485.485,0,0,1,.32291.91475A5.6963,5.6963,0,0,1,10.40692,20.1471Z"/><path d="M18.46684,24.9945a.48326.48326,0,0,1-.3428-.142l-1.74427-1.74427a.48479.48479,0,1,1,.68559-.68559l1.74427,1.74428a.48483.48483,0,0,1-.34279.82762Z"/><path d="M9.075,24.98125a.48484.48484,0,0,1-.34279-.82763L10.45,22.43586a.48478.48478,0,0,1,.68558.68559L9.41784,24.83921A.4833.4833,0,0,1,9.075,24.98125Z"/><path d="M9.8487,14.37073a.48326.48326,0,0,1-.3428-.142L8.73225,13.455a.48479.48479,0,0,1,.68559-.68559l.77365.77366a.48483.48483,0,0,1-.34279.82762Z"/><path d="M17.71922,14.358a.48484.48484,0,0,1-.34279-.82763l.74761-.74808a.48478.48478,0,1,1,.68559.68558l-.74761.74809A.4833.4833,0,0,1,17.71922,14.358Z"/><path d="M14.26524,24.44812h-.98861a.48484.48484,0,0,1,0-.96967h.98861a.48484.48484,0,1,1,0,.96967Z"/><path d="M6.1665,20.00505a.48434.48434,0,0,1-.455-.31912A25.93457,25.93457,0,0,1,4.391,11.73113c-.02509-4.01315.259-4.953,1.5956-7.56988C7.88663.74752,11.9921.00322,13.41442.00322l.26609-.001c1.53641-.01562,3.11024-.01941,6.16366,2.46016,3.855,3.1306,3.42462,10.31933,3.40474,10.62377a.49316.49316,0,0,1-.51561.4517.48515.48515,0,0,1-.45217-.51561c.00473-.0696.41618-6.99366-3.04821-9.807C16.4489.9549,15.11323.95537,13.68619.97194l-.27177.001c-1.2637,0-4.908.65481-6.57227,3.64479-1.25944,2.46584-1.50564,3.285-1.4815,7.10777A25.63911,25.63911,0,0,0,6.05,17.33183c.866-3.0307,3.01649-4.96436,4.80811-6.57511a10.79255,10.79255,0,0,0,2.42039-2.63961.48469.48469,0,1,1,.86361.44033,11.34635,11.34635,0,0,1-2.63582,2.92038c-2.1595,1.94171-4.60688,4.14241-4.85546,8.0727a.48573.48573,0,0,1-.41476.4498A.573.573,0,0,1,6.1665,20.00505Z"/><path d="M21.22718,20.648a.483.483,0,0,1-.48436-.45832c-.22632-4.19354-3.2769-8.6778-6.17313-10.93958a8.71647,8.71647,0,0,1-3.04206-5.00128C8.82079,3.96855,6.13052,6.353,6.10211,6.37852a.48473.48473,0,0,1-.64534-.72346c.13352-.11884,3.30625-2.918,6.57511-2.31339a.48552.48552,0,0,1,.39345.41713A7.87873,7.87873,0,0,0,15.16626,8.486a18.56927,18.56927,0,0,1,6.309,9.9093,13.38535,13.38535,0,0,0,.84941-4.50272c.00284-4.213-3.77357-8.23652-6.90228-8.75876a.48486.48486,0,0,1,.16-.95642c3.96675.66239,7.71476,5.38385,7.71192,9.71612A14.6019,14.6019,0,0,1,21.65,20.40088.48467.48467,0,0,1,21.22718,20.648Z"/><path d="M22.78585,8.72268a.48236.48236,0,0,1-.32433-.12452q-.18749-.169-.38114-.33048a.48467.48467,0,1,1,.62214-.74335q.20737.17328.40766.35321a.48483.48483,0,0,1-.32433.84514Z"/><path d="M13.842,32A13.84141,13.84141,0,0,1,4.64808,7.81125a.48461.48461,0,0,1,.64392.72441,12.87191,12.87191,0,1,0,17.16905.062.48475.48475,0,1,1,.6496-.71968A13.84184,13.84184,0,0,1,13.842,32Z"/></g></g></svg>