<svg xmlns="http://www.w3.org/2000/svg" width="32" height="32" viewBox="0 0 26.21611 32"><g id="a1b1fc0e-4fb3-4eaa-b237-232c89318c0d" data-name="Layer 2"><g id="a6ed4dae-a61c-4f75-a5ff-7fc8d991a330" data-name="Layer 1"><path d="M21.41876,26.16951H8.29944a.48458.48458,0,0,1-.48485-.48485v-1.946a1.45614,1.45614,0,0,1,1.45455-1.45455H20.44906a1.45614,1.45614,0,0,1,1.45455,1.45455v1.946A.48458.48458,0,0,1,21.41876,26.16951Zm-12.63447-.9697H20.93391V23.73864a.48578.48578,0,0,0-.48485-.48485H9.26914a.48578.48578,0,0,0-.48485.48485Z"/><path d="M21.12993,32H8.58827a1.51756,1.51756,0,0,1-1.5161-1.5161V27.15814a2.32814,2.32814,0,0,1,.93845-1.86269.48467.48467,0,0,1,.57765.77841,1.35669,1.35669,0,0,0-.5464,1.08428V30.4839a.54721.54721,0,0,0,.5464.5464H21.12993a.54722.54722,0,0,0,.54641-.5464V27.15814a1.3567,1.3567,0,0,0-.54641-1.08428.48467.48467,0,0,1,.57766-.77841,2.32813,2.32813,0,0,1,.93844,1.86269V30.4839A1.51756,1.51756,0,0,1,21.12993,32Z"/><path d="M10.77482,26.16951a.48458.48458,0,0,1-.48485-.48485V22.76894a.48485.48485,0,0,1,.9697,0v2.91572A.48458.48458,0,0,1,10.77482,26.16951Z"/><path d="M21.86005,28.44886H14.20948a.48485.48485,0,1,1,0-.96969h7.65057a.48485.48485,0,1,1,0,.96969Z"/><path d="M17.10531,9.16146a.485.485,0,0,1-.08333-.9626l1.90057-.33428a.4923.4923,0,0,1,.11174-.00615l2.9233.16714.77651-.00095a.48485.48485,0,0,1,0,.9697h-.804l-2.89488-.16477-1.8447.32481A.51814.51814,0,0,1,17.10531,9.16146Z"/><path d="M21.60531,11.822a.48458.48458,0,0,1-.48485-.48485v-2.839a.48485.48485,0,0,1,.9697,0v2.839A.48457.48457,0,0,1,21.60531,11.822Z"/><path d="M23.50588,14.89489H19.70475A.48457.48457,0,0,1,19.2199,14.41V12.3428a1.4919,1.4919,0,0,1,1.48958-1.49053H22.5002a1.4921,1.4921,0,0,1,1.49053,1.49053V14.41A.48458.48458,0,0,1,23.50588,14.89489Zm-3.31629-.9697H23.021V12.3428a.52145.52145,0,0,0-.52083-.52083H20.70948a.52064.52064,0,0,0-.51989.52083Z"/><path d="M24.11573,32h-2.9858a.48485.48485,0,0,1,0-.9697h2.9858a1.13241,1.13241,0,0,0,1.13068-1.13068v-13.874a1.13211,1.13211,0,0,0-1.13068-1.13068H19.094a1.13211,1.13211,0,0,0-1.13068,1.13068v6.74337a.48485.48485,0,0,1-.9697,0V16.02557A2.10277,2.10277,0,0,1,19.094,13.92519h5.02178a2.10277,2.10277,0,0,1,2.10038,2.10038V29.89962A2.10277,2.10277,0,0,1,24.11573,32Z"/><path d="M5.27766,32H3.12331A3.12362,3.12362,0,0,1,.01062,28.61837L1.75493,7.60559A3.14206,3.14206,0,0,1,4.86762,4.74006H18.98694a3.10666,3.10666,0,0,1,3.10322,3.10322v.66619a.48485.48485,0,0,1-.9697,0V7.84328a2.136,2.136,0,0,0-2.13352-2.13353H4.86762A2.1667,2.1667,0,0,0,2.72084,7.68608L.97653,28.69792A2.15344,2.15344,0,0,0,3.12331,31.0303H5.27766a.48485.48485,0,1,1,0,.9697Z"/><path d="M11.99831,15.72822a5.23075,5.23075,0,0,1-5.22538-5.22491.48485.48485,0,0,1,.96969,0,4.25569,4.25569,0,0,0,8.51137,0,.48485.48485,0,0,1,.96969,0A5.23075,5.23075,0,0,1,11.99831,15.72822Z"/><path d="M16.73884,5.70975a.48456.48456,0,0,1-.48485-.48484,4.25569,4.25569,0,0,0-8.51137,0,.48485.48485,0,0,1-.96969,0,5.22538,5.22538,0,0,1,10.45075,0A.48456.48456,0,0,1,16.73884,5.70975Z"/><path d="M21.41876,20.91477a.48457.48457,0,0,1-.48485-.48485V18.85511H17.47842a.48485.48485,0,1,1,0-.96969h3.94034a.48457.48457,0,0,1,.48485.48485v2.05965A.48457.48457,0,0,1,21.41876,20.91477Z"/></g></g></svg>