<svg xmlns="http://www.w3.org/2000/svg" width="30" height="32" viewBox="0 0 29.36458 32"><g id="b37825e5-2b1f-4a7d-ac13-7f2ffd8e7ab7" data-name="Layer 2"><g id="fb41c36e-bb3d-4e07-8493-6351bbc9ccf9" data-name="Layer 1"><path d="M6.64962,14.0303a.50926.50926,0,0,1-.10511-.01136.48477.48477,0,0,1-.36837-.57813A6.17489,6.17489,0,0,1,7.3892,10.91a.48524.48524,0,0,1,.75569.6089,5.19058,5.19058,0,0,0-1.02178,2.13115A.48551.48551,0,0,1,6.64962,14.0303Z"/><path d="M6.43655,16.86364A.48871.48871,0,0,1,6.1875,16.795c-.7661-.45833-1.96875-1.97585-1.03788-4.44081a.4849.4849,0,0,1,.9072.3428c-.69413,1.83759.08807,2.80208.45738,3.1321l8.47065-3.268a10.12686,10.12686,0,0,1,6.83428-.17235,8.09639,8.09639,0,0,0-7.3589-1.19365l-4.30777,1.38541a2.99741,2.99741,0,0,0-2.00947,1.983.48486.48486,0,1,1-.911-.33239,3.95276,3.95276,0,0,1,2.6231-2.57386L14.161,10.27273a9.06907,9.06907,0,0,1,9.08523,2.05208l1.161,1.10417a.485.485,0,0,1-.51231.80255l-1.88258-.74195a9.16881,9.16881,0,0,0-6.679-.02414L6.6108,16.831A.48183.48183,0,0,1,6.43655,16.86364Z"/><path d="M7.34564,22.536a.48378.48378,0,0,1-.321-.84659c.09943-.08806,2.51326-2.15246,8.78883-1.80681,2.21117.10227,4.37689-1.52936,4.74147-3.02936a.48532.48532,0,0,1,.94319.22917c-.46213,1.90246-3.03125,3.92708-5.73769,3.768-5.82481-.31724-8.07576,1.54924-8.09754,1.56818A.48628.48628,0,0,1,7.34564,22.536Z"/><path d="M11.91761,26.4839a.48453.48453,0,0,1-.46685-.61648,9.35844,9.35844,0,0,0,.27272-1.45928,4.49987,4.49987,0,0,1-4.35511.07387.48425.48425,0,0,1,.00758-.86174,9.54522,9.54522,0,0,0,3.4678-3.0341.48464.48464,0,0,1,.8447.47538,9.1281,9.1281,0,0,1-2.97538,2.89868,3.65807,3.65807,0,0,0,3.15341-.83618.49127.49127,0,0,1,.48769-.10416.48313.48313,0,0,1,.322.37973,4.34274,4.34274,0,0,1,.017,1.04451,7.68623,7.68623,0,0,0,.95834-1.61458.48349.48349,0,0,1,.4214-.29167.46493.46493,0,0,1,.44791.24905,3.64112,3.64112,0,0,0,2.29546,1.88352,6.90663,6.90663,0,0,0,4.29545-.66856,6.258,6.258,0,0,1-1.49337-1.17708.48536.48536,0,0,1,.35133-.80776,3.81476,3.81476,0,0,0,3.072-1.3447,3.56488,3.56488,0,0,1-2.75947-2.8911.48368.48368,0,0,1,.44223-.52367.48888.48888,0,0,1,.52368.43844c.00757.07576.21117,1.78883,2.63352,2.16951a.48562.48562,0,0,1,.37595.65625,4.2221,4.2221,0,0,1-3.13447,2.34186,3.45335,3.45335,0,0,0,1.25852.60038.48476.48476,0,0,1,.15909.88541c-.12879.08144-3.20455,1.97254-5.965,1.26042a4.39835,4.39835,0,0,1-2.42235-1.61743A9.6359,9.6359,0,0,1,12.24432,26.357.48264.48264,0,0,1,11.91761,26.4839Z"/><path d="M16.33144,5.25426A2.13385,2.13385,0,1,1,16.59,1.00237l7.0322.86079a1.2612,1.2612,0,0,1,1.05776,1.25711,1.25222,1.25222,0,0,1-1.018,1.25094l-7.072.867A2.05963,2.05963,0,0,1,16.33144,5.25426Zm0-3.29829a1.16437,1.16437,0,1,0,.1411,2.32007l7.03219-.86079a.28119.28119,0,0,0,.2055-.295.28966.28966,0,0,0-.24527-.30114l-6.99242-.85464A1.18776,1.18776,0,0,0,16.33144,1.956Z"/><path d="M16.54356,2.93371a.48457.48457,0,0,1-.48485-.48485V.48485a.48485.48485,0,0,1,.9697,0v1.964A.48457.48457,0,0,1,16.54356,2.93371Z"/><path d="M19.43845,2.93371a.48456.48456,0,0,1-.48485-.48485V.7036a.48485.48485,0,0,1,.9697,0V2.44886A.48457.48457,0,0,1,19.43845,2.93371Z"/><path d="M17.99053,6.23674a.48457.48457,0,0,1-.48485-.48485v-1.964a.48485.48485,0,1,1,.9697,0v1.964A.48457.48457,0,0,1,17.99053,6.23674Z"/><path d="M20.88542,6.018a.48456.48456,0,0,1-.48485-.48485V3.78788a.48485.48485,0,0,1,.9697,0V5.53314A.48457.48457,0,0,1,20.88542,6.018Z"/><path d="M22.33333,2.93371a.48457.48457,0,0,1-.48485-.48485V.93229a.48485.48485,0,0,1,.9697,0V2.44886A.48456.48456,0,0,1,22.33333,2.93371Z"/><path d="M14.68182,32a14.68229,14.68229,0,0,1,0-29.36458.48485.48485,0,1,1,0,.96969,13.71241,13.71241,0,1,0,10.5303,4.92851.48475.48475,0,1,1,.74432-.62121A14.68215,14.68215,0,0,1,14.68182,32Z"/><path d="M18.08049,18.45549a8.2927,8.2927,0,0,1-.90246-.05113.48482.48482,0,0,1,.10417-.964c3.536.38731,4.03409-1.804,4.054-1.89725a.48457.48457,0,0,1,.95171.18276C22.2822,15.75521,21.72917,18.45549,18.08049,18.45549Z"/></g></g></svg>